# xmcd
#
# Track frame offsets:
#	150
#	18348
#	35313
#	53933
#	71570
#	88515
#	114305
#	130438
#	143208
#	165658
#	180950
#	215305
#
# Disc length: 3101 seconds
#
# Revision: 2
# Processed by: cddbd v1.5.2PL0 Copyright (c) Steve Scherf et al.
# Submitted via: audiograbber 1.83.01
#
DISCID=9d0c1b0c
DTITLE=Earth, Wind and Fire - The Best Of Vol. 1
DYEAR=1999
DGENRE=Blues
TTITLE0=Got To Get You Into My Life
TTITLE1=Fantasy
TTITLE2=Can't Hide Love
TTITLE3=Love Music
TTITLE4=Get Away
TTITLE5=That's The Way Of The World
TTITLE6=September
TTITLE7=Shining Star
TTITLE8=Reasons
TTITLE9=Sing A Song
TTITLE10=Megamix 2000
TTITLE11=Megamix (Radio Edit)
EXTD=
EXTT0=
EXTT1=
EXTT2=
EXTT3=
EXTT4=
EXTT5=
EXTT6=
EXTT7=
EXTT8=
EXTT9=
EXTT10=
EXTT11=
PLAYORDER=
